<svg width="28" height="28" viewBox="0 0 30 30" xmlns="http://www.w3.org/2000/svg" fill="none">

 <g>
  <title>Layer 1</title>
  <path transform="rotate(90 14.9902 15)" stroke="null" id="svg_1" fill="black" d="m0,15c0,8.28749 6.88235,14.99999 15.37058,14.99999c6.79234,0 12.55252,-4.2975 14.5833,-10.25625c0.14469,-0.75 -0.33105,-1.02495 -0.7391,-1.02495c-0.36497,0 -1.33208,0.01245 -2.6135,0.01875c0.92687,4.1724 -2.06202,5.05245 -2.06202,5.05245c-1.77405,0.6825 -2.24853,1.66875 -2.24853,1.66875c-0.9529,1.3587 -0.93334,-0.105 -0.93334,-0.105c0.10698,-1.5063 1.58375,-2.29755 1.58375,-2.29755c2.35015,-1.3374 1.67101,-3.5112 1.27874,-4.36875c-0.99456,-0.135 -1.67101,-0.52125 -2.05555,-0.94995c-0.38454,3.3312 -1.70636,6.8325 -7.59539,6.8325c-1.67758,0 -3.04883,-0.58125 -4.12421,-1.5438c-0.38844,0.16875 -1.9513,0.675 -4.06813,-0.13125c0,0 -0.4119,-1.25625 1.5759,-4.125c-0.34151,-1.2 -0.51096,-2.475 -0.51879,-3.75c0.00783,-1.27494 0.17728,-2.54993 0.51879,-3.74994c-1.98779,-2.84999 -1.5759,-4.10624 -1.5759,-4.10624c2.11684,-0.80625 3.6797,-0.30002 4.06813,-0.15c1.07538,-0.95625 2.44664,-1.5375 4.12421,-1.5375c5.90481,0 7.20422,3.50624 7.58229,6.84374c0.46138,-0.525 1.40387,-1.0125 2.84419,-1.0125c2.05697,0 3.70968,0.01875 4.20893,0.01875c0.40284,0 0.88379,-0.2625 0.72994,-1.03125c-2.01784,-6.00125 -7.7818,-10.295 -14.56373,-10.295c-8.48824,0 -15.37058,6.71625 -15.37058,15z"/>
  <path id="svg_2" d="m0.88235,3.82353" opacity="NaN" stroke="null" fill="black"/>
 </g>
</svg>